# xmcd
#
# Track frame offsets:
#	150
#	17234
#	35779
#	48916
#	63041
#	78379
#	87674
#	106004
#	119866
#	138981
#	156959
#	171761
#	189551
#	205451
#	220901
#	234151
#	249659
#	262514
#	276466
#	285706
#
# Disc length: 4065 seconds
#
# Revision: 1
# Processed by: cddbd v1.5.2PL0 Copyright (c) Steve Scherf et al.
# Submitted via: audiograbber 1.83.01
#
DISCID=240fdf14
DTITLE=Caetano Veloso - Certeza da Beleza
DYEAR=1900
DGENRE=MPB
TTITLE0=Milagres do Povo
TTITLE1=Falou, Amizade
TTITLE2=Banda Novo
TTITLE3=Festa Imodesta
TTITLE4=Peco a Deus
TTITLE5=Cidade Maravilhosa
TTITLE6=Isto Aqui o Que É
TTITLE7=Certeza da Beleza
TTITLE8=Coracao Imprevisto
TTITLE9=Asa Delta
TTITLE10=É Tao Bom
TTITLE11=Velhicidade
TTITLE12=Luz e Mistério
TTITLE13=Preciso Aprender a Só Ser
TTITLE14=Meu Bolero
TTITLE15=As Varias Pontas de uma Estrela
TTITLE16=Acalanto
TTITLE17=Pra Valer
TTITLE18=Merda
TTITLE19=Noite Olindenses
EXTD=
EXTT0=
EXTT1=
EXTT2=
EXTT3=
EXTT4=
EXTT5=
EXTT6=
EXTT7=
EXTT8=
EXTT9=
EXTT10=
EXTT11=
EXTT12=
EXTT13=
EXTT14=
EXTT15=
EXTT16=
EXTT17=
EXTT18=
EXTT19=
PLAYORDER=
